HIERARCHY
ROOT Pelvis
{
	OFFSET 0.000000 0.000000 0.000000
	CHANNELS 6 Xposition Yposition Zposition Xrotation Yrotation Zrotation
	JOINT LeftUpLeg_virtual
	{
		OFFSET 0.000000 0.000000 0.000000
		CHANNELS 3 Xrotation Yrotation Zrotation
		JOINT LeftUpLeg
		{
			OFFSET 18.735201 -5.666702 -4.541200
			CHANNELS 3 Xrotation Yrotation Zrotation
			JOINT LeftLeg
			{
				OFFSET -0.021200 -31.938179 0.493100
				CHANNELS 3 Xrotation Yrotation Zrotation
				JOINT LeftFoot
				{
					OFFSET 0.021200 -31.938179 -4.336299
					CHANNELS 3 Xrotation Yrotation Zrotation
					JOINT LeftToeBase
					{
						OFFSET 0.943001 -26.722000 15.023500
						CHANNELS 3 Xrotation Yrotation Zrotation
						End Site
						{
							OFFSET 0 0 0
						}
					}
				}
			}
		}
	}
	JOINT RightUpLeg_virtual
	{
		OFFSET 0.000000 0.000000 0.000000
		CHANNELS 3 Xrotation Yrotation Zrotation
		JOINT RightUpLeg
		{
			OFFSET -18.735201 -5.666702 -4.541200
			CHANNELS 3 Xrotation Yrotation Zrotation
			JOINT RightLeg
			{
				OFFSET 0.018946 -31.938133 0.493100
				CHANNELS 3 Xrotation Yrotation Zrotation
				JOINT RightFoot
				{
					OFFSET -0.018946 -31.938126 -4.336299
					CHANNELS 3 Xrotation Yrotation Zrotation
					JOINT RightToeBase
					{
						OFFSET -0.943001 -26.722004 15.023500
						CHANNELS 3 Xrotation Yrotation Zrotation
						End Site
						{
							OFFSET 0 0 0
						}
					}
				}
			}
		}
	}
	JOINT Hips_virtual
	{
		OFFSET 0.000000 0.000000 0.000000
		CHANNELS 3 Xrotation Yrotation Zrotation
		JOINT Hips
		{
			OFFSET -0.000000 -0.000000 -0.000000
			CHANNELS 3 Xrotation Yrotation Zrotation
			JOINT Spine
			{
				OFFSET 0.000000 10.199997 -0.299500
				CHANNELS 3 Xrotation Yrotation Zrotation
				JOINT Spine1
				{
					OFFSET 0.000000 11.900002 -1.516600
					CHANNELS 3 Xrotation Yrotation Zrotation
					JOINT Spine2
					{
						OFFSET 0.000000 13.600006 -2.842500
						CHANNELS 3 Xrotation Yrotation Zrotation
						JOINT Neck_virtual
						{
							OFFSET 0.000000 0.000000 0.000000
							CHANNELS 3 Xrotation Yrotation Zrotation
							JOINT Neck
							{
								OFFSET 0.000000 9.624100 -2.890100
								CHANNELS 3 Xrotation Yrotation Zrotation
								JOINT Head
								{
									OFFSET 0.000000 14.068802 -1.351900
									CHANNELS 3 Xrotation Yrotation Zrotation
									End Site
									{
										OFFSET 0 0 0
									}
								}
							}
						}
						JOINT LeftShoulder_virtual
						{
							OFFSET 0.000000 0.000000 0.000000
							CHANNELS 3 Xrotation Yrotation Zrotation
							JOINT LeftShoulder
							{
								OFFSET 15.263000 10.923401 -0.547700
								CHANNELS 3 Xrotation Yrotation Zrotation
								JOINT LeftArm
								{
									OFFSET 25.438599 -2.830597 -13.032500
									CHANNELS 3 Xrotation Yrotation Zrotation
									JOINT LeftForeArm
									{
										OFFSET 29.960503 0.000000 0.000000
										CHANNELS 3 Xrotation Yrotation Zrotation
										JOINT LeftHand
										{
											OFFSET 27.849251 0.000000 0.000000
											CHANNELS 3 Xrotation Yrotation Zrotation
											End Site
											{
												OFFSET 0 0 0
											}
										}
									}
								}
							}
						}
						JOINT RightShoulder_virtual
						{
							OFFSET 0.000000 0.000000 0.000000
							CHANNELS 3 Xrotation Yrotation Zrotation
							JOINT RightShoulder
							{
								OFFSET -15.263000 10.923401 -0.547700
								CHANNELS 3 Xrotation Yrotation Zrotation
								JOINT RightArm
								{
									OFFSET -25.438599 -2.830597 -13.032500
									CHANNELS 3 Xrotation Yrotation Zrotation
									JOINT RightForeArm
									{
										OFFSET -29.960503 0.000000 0.000000
										CHANNELS 3 Xrotation Yrotation Zrotation
										JOINT RightHand
										{
											OFFSET -27.849251 0.000000 0.000000
											CHANNELS 3 Xrotation Yrotation Zrotation
											End Site
											{
												OFFSET 0 0 0
											}
										}
									}
								}
							}
						}
					}
				}
			}
		}
	}
}
MOTION
Frames: 7
Frame Time: 0.03333333
-4.577222 81.325630 8.608124 0.000000 0.000000 0.000000 9.976863 -71.436190 7.566311 -25.610247 50.871908 40.009623 63.468112 8.680613 -5.957002 -38.166575 7.836081 -0.103508 0.000000 0.000000 0.000000 9.976863 -71.436190 7.566311 -25.748580 6.166691 -31.644393 30.560377 6.876561 -1.333663 -10.171571 0.102584 33.808094 0.000000 0.000000 0.000000 9.976863 -71.436190 7.566311 0.000000 -0.000001 0.000000 8.708624 -7.733896 6.818076 1.343978 -10.966284 5.954104 0.000000 0.000000 0.000000 -9.901232 -11.269434 5.321773 0.433304 9.060271 1.175832 0.000000 0.000000 0.000000 -9.901232 -11.269434 5.321773 3.599835 -19.919946 18.035103 -10.637658 -13.952745 -8.700980 -0.024145 -25.657285 -5.260096 0.000000 0.000000 0.000000 -9.901232 -11.269434 5.321773 2.423629 -14.507462 8.997718 -48.645632 -3.342011 -18.386956 -4.067745 37.429017 6.860108 0.000000 0.000000 0.000000 
-5.505624 82.323540 10.401337 0.000000 0.000000 0.000000 3.881275 -66.435208 1.643868 -20.546305 50.513562 33.671391 59.276726 11.174954 -4.494029 -39.588442 6.723411 4.076069 0.000000 0.000000 0.000000 3.881275 -66.435208 1.643868 -18.288293 4.307118 -32.271804 32.938437 4.152142 -0.010645 -18.206185 -3.389494 29.572732 0.000000 0.000000 0.000000 3.881275 -66.435208 1.643868 0.000000 -0.000002 0.000000 7.956947 -7.875953 7.011524 -0.190745 -11.250284 6.028634 0.000000 0.000000 0.000000 -11.447047 -11.562244 5.338309 1.005911 7.981494 1.488745 0.000000 0.000000 0.000000 -11.447047 -11.562244 5.338309 7.036031 -21.717437 28.304178 -17.434029 -22.035022 -5.063778 -0.024461 -18.120266 -4.741182 0.000000 0.000000 0.000000 -11.447047 -11.562244 5.338309 0.930708 -15.187711 4.991302 -54.595225 -4.695019 -21.803118 -1.943013 39.705467 7.057015 0.000000 0.000000 0.000000 
-6.294072 83.420792 12.448471 0.000000 0.000000 0.000000 -2.798064 -60.438705 -3.817671 -13.566854 50.406601 28.800473 54.493466 10.629256 -3.980194 -39.664012 5.544262 6.605836 0.000000 0.000000 0.000000 -2.798064 -60.438705 -3.817671 -9.285309 3.011987 -32.259281 36.459260 -0.877212 3.200775 -24.716054 -6.176853 21.815365 0.000000 0.000000 0.000000 -2.798064 -60.438705 -3.817671 0.000000 0.000000 0.000000 7.319991 -7.908487 6.851418 -1.527754 -11.209400 5.298611 0.000000 0.000000 0.000000 -12.782775 -11.382097 4.629936 1.930089 6.827266 1.723333 0.000000 0.000000 0.000000 -12.782775 -11.382097 4.629936 8.584867 -21.755782 33.610159 -27.651765 -28.364623 -2.405168 -0.026666 -18.419770 -2.358923 0.000000 0.000000 0.000000 -12.782775 -11.382097 4.629936 -0.667861 -15.637525 0.241172 -60.363545 -5.259258 -25.202684 0.541720 42.083234 7.030222 0.000000 0.000000 0.000000 
-6.887796 84.309212 15.379128 0.000000 0.000000 0.000000 -4.915325 -54.695984 -4.983331 -5.219992 49.948641 25.215462 48.463618 6.920121 -4.486023 -38.197987 6.513802 2.642412 0.000000 0.000000 0.000000 -4.915325 -54.695984 -4.983331 -2.420916 1.588714 -32.473762 37.653706 -7.438982 9.463887 -22.692815 -7.534330 11.996045 0.000000 0.000000 0.000000 -4.915325 -54.695984 -4.983331 0.000000 0.000003 0.000000 6.305670 -7.928520 6.534285 -3.644119 -11.072144 4.108839 0.000000 0.000000 0.000000 -14.890635 -11.019321 3.490230 3.058453 5.745563 1.788938 0.000000 0.000000 0.000000 -14.890635 -11.019321 3.490230 7.074327 -18.434161 38.400539 -38.084623 -35.687974 -5.573836 -0.028791 -17.900203 1.555082 0.000000 0.000000 0.000000 -14.890635 -11.019321 3.490230 -2.360065 -15.858977 -5.167572 -65.467971 -4.894196 -27.307872 2.380882 44.448559 6.818857 0.000000 0.000000 0.000000 
-7.113512 84.573097 18.971142 0.000000 0.000000 0.000000 -3.629475 -50.533824 -4.307808 4.044737 48.891099 20.493129 39.248955 3.875918 -3.319522 -36.677286 7.556400 -5.487382 0.000000 0.000000 0.000000 -3.629475 -50.533824 -4.307808 -2.746675 3.613227 -28.898008 42.006261 -16.905114 8.919565 -12.796487 -10.584211 6.690451 0.000000 0.000000 0.000000 -3.629475 -50.533824 -4.307808 0.000000 0.000002 0.000000 5.177356 -7.782498 6.257967 -5.980716 -10.618305 3.055380 0.000000 0.000000 0.000000 -17.203954 -10.372255 2.547703 3.724550 4.895259 1.780833 0.000000 0.000000 0.000000 -17.203954 -10.372255 2.547703 1.383182 -12.755048 42.528689 -34.235961 -43.671919 -1.374650 -0.031302 -19.264654 5.630128 0.000000 0.000000 0.000000 -17.203954 -10.372255 2.547703 -4.174405 -15.821107 -11.641651 -68.947618 -4.309888 -26.975793 2.622770 46.978191 6.455899 0.000000 0.000000 0.000000 
-7.367468 83.192337 22.088816 0.000000 0.000000 0.000000 -2.813229 -46.938843 -4.439824 10.905946 47.332839 17.947707 32.009149 1.319019 0.677512 -35.581789 10.334782 -16.609681 0.000000 0.000000 0.000000 -2.813229 -46.938843 -4.439824 -15.800108 10.006696 -19.119366 52.331933 -22.713036 -3.432748 11.363141 -10.565149 4.917618 0.000000 0.000000 0.000000 -2.813229 -46.938843 -4.439824 0.000000 0.000001 0.000000 4.700191 -7.456075 5.617279 -6.920793 -10.035140 1.940076 0.000000 0.000000 0.000000 -18.113472 -9.586527 1.570266 3.795483 4.175654 1.855588 0.000000 0.000000 0.000000 -18.113472 -9.586527 1.570266 -4.223494 -7.219721 49.579558 -21.201810 -45.448840 11.996604 -0.034770 -23.714468 9.158064 0.000000 0.000000 0.000000 -18.113472 -9.586527 1.570266 -6.110768 -15.442218 -19.377172 -70.708338 -4.296215 -25.087865 2.518683 49.772702 5.625114 0.000000 0.000000 0.000000 
-8.574152 80.506889 24.369646 0.000000 0.000000 0.000000 -2.272579 -41.185132 -4.206682 8.073830 46.283882 24.748970 34.114500 -3.115826 1.867282 -37.283305 11.306111 -23.314385 0.000000 0.000000 0.000000 -2.272579 -41.185132 -4.206682 -24.655284 12.074676 -17.034915 57.778203 -7.513175 -0.890724 36.210637 -0.285135 2.795225 0.000000 0.000000 0.000000 -2.272579 -41.185132 -4.206682 0.000000 0.000003 0.000000 4.494225 -6.858414 3.986900 -7.143793 -9.227466 0.256466 0.000000 0.000000 0.000000 -18.288643 -8.472039 0.080250 3.336357 3.618720 1.661791 0.000000 0.000000 0.000000 -18.288643 -8.472039 0.080250 -8.089606 -2.475281 55.396700 -26.477170 -44.260056 10.782305 -0.041285 -34.023013 10.018860 0.000000 0.000000 0.000000 -18.288643 -8.472039 0.080250 -8.036740 -14.589445 -27.255139 -71.895316 -4.458936 -22.538656 2.272443 52.536012 4.605198 0.000000 0.000000 0.000000 
